# xmcd
#
# Track frame offsets:
#	150
#	16532
#	27560
#	46092
#	59045
#	69640
#	95537
#	110475
#	125150
#	147217
#	157110
#	177557
#
# Disc length: 2523 seconds
#
# Revision: 3
# Processed by: cddbd v1.5.2PL0 Copyright (c) Steve Scherf et al.
# Submitted via: EasyCDDAExtractor 16.0.6.1
#
DISCID=ae09d90c
DTITLE=Anson Funderburgh and The Rockets - Sins
DYEAR=1987
DGENRE=Blues
TTITLE0=A Man Needs His Loving
TTITLE1=I'll Be True
TTITLE2=Don't  Want No Leftovers
TTITLE3=Walked All Night
TTITLE4=My Kind of Baby
TTITLE5=Changing Neighborhoods
TTITLE6=Can't  Stop  Loving
TTITLE7=Chill Out
TTITLE8=My Heart
TTITLE9=Trying to Make You Mine
TTITLE10=Sleeping in the Ground
TTITLE11=Hard Hearted Woman
EXTD=
EXTT0=
EXTT1=
EXTT2=
EXTT3=
EXTT4=
EXTT5=
EXTT6=
EXTT7=
EXTT8=
EXTT9=
EXTT10=
EXTT11=
PLAYORDER=
